<?xml version="1.0" encoding="UTF-8"?>
<svg width="700pt" height="700pt" version="1.1" viewBox="0 0 700 700" xmlns="http://www.w3.org/2000/svg" xmlns:xlink="http://www.w3.org/1999/xlink">
 <defs>
  <symbol id="x" overflow="visible">
   <path d="m13.5-0.8125c-0.69922 0.36719-1.4297 0.63672-2.1875 0.8125-0.75 0.1875-1.5391 0.28125-2.3594 0.28125-2.4375 0-4.375-0.67969-5.8125-2.0469-1.4297-1.3633-2.1406-3.2188-2.1406-5.5625s0.71094-4.1953 2.1406-5.5625c1.4375-1.375 3.375-2.0625 5.8125-2.0625 0.82031 0 1.6094 0.09375 2.3594 0.28125 0.75781 0.1875 1.4883 0.46094 2.1875 0.8125v3.0469c-0.71094-0.47656-1.4062-0.82812-2.0938-1.0469-0.67969-0.22656-1.3906-0.34375-2.1406-0.34375-1.3555 0-2.418 0.43359-3.1875 1.2969-0.77344 0.86719-1.1562 2.0586-1.1562 3.5781 0 1.5117 0.38281 2.7031 1.1562 3.5781 0.76953 0.86719 1.832 1.2969 3.1875 1.2969 0.75 0 1.4609-0.10938 2.1406-0.32812 0.6875-0.22656 1.3828-0.58203 2.0938-1.0625z"/>
  </symbol>
  <symbol id="d" overflow="visible">
   <path d="m9.875-8.0156c-0.3125-0.14453-0.62109-0.25-0.92188-0.3125-0.30469-0.070313-0.60938-0.10938-0.92188-0.10938-0.90625 0-1.6055 0.29297-2.0938 0.875-0.48047 0.57422-0.71875 1.4023-0.71875 2.4844v5.0781h-3.5312v-11.016h3.5312v1.8125c0.44531-0.71875 0.96094-1.2422 1.5469-1.5781 0.59375-0.33203 1.2969-0.5 2.1094-0.5 0.125 0 0.25391 0.007812 0.39062 0.015625 0.13281 0.011719 0.33203 0.03125 0.59375 0.0625z"/>
  </symbol>
  <symbol id="a" overflow="visible">
   <path d="m12.688-5.5312v1h-8.2344c0.082031 0.82422 0.37891 1.4453 0.89062 1.8594 0.50781 0.40625 1.2266 0.60938 2.1562 0.60938 0.73828 0 1.4922-0.10938 2.2656-0.32812 0.78125-0.21875 1.582-0.55078 2.4062-1v2.7188c-0.83594 0.3125-1.668 0.54688-2.5 0.70312-0.83594 0.16406-1.668 0.25-2.5 0.25-2 0-3.5547-0.50391-4.6562-1.5156-1.1055-1.0078-1.6562-2.4297-1.6562-4.2656 0-1.7891 0.53906-3.2031 1.625-4.2344 1.0938-1.0312 2.5859-1.5469 4.4844-1.5469 1.7266 0 3.1133 0.52344 4.1562 1.5625 1.0391 1.043 1.5625 2.4375 1.5625 4.1875zm-3.625-1.1719c0-0.66406-0.19922-1.2031-0.59375-1.6094-0.38672-0.41406-0.89062-0.625-1.5156-0.625-0.67969 0-1.2305 0.19531-1.6562 0.57812-0.42969 0.38672-0.69531 0.9375-0.79688 1.6562z"/>
  </symbol>
  <symbol id="l" overflow="visible">
   <path d="m6.625-4.9531c-0.73047 0-1.2812 0.125-1.6562 0.375-0.36719 0.25-0.54688 0.61719-0.54688 1.0938 0 0.44922 0.14453 0.79688 0.4375 1.0469 0.30078 0.25 0.71875 0.375 1.25 0.375 0.65625 0 1.207-0.23438 1.6562-0.70312 0.45703-0.47656 0.6875-1.0703 0.6875-1.7812v-0.40625zm5.375-1.3281v6.2812h-3.5469v-1.625c-0.46875 0.66797-1 1.1523-1.5938 1.4531-0.58594 0.30078-1.3047 0.45312-2.1562 0.45312-1.1367 0-2.0625-0.33203-2.7812-1-0.71094-0.66406-1.0625-1.5234-1.0625-2.5781 0-1.2891 0.44141-2.2383 1.3281-2.8438 0.89453-0.60156 2.2891-0.90625 4.1875-0.90625h2.0781v-0.28125c0-0.55078-0.21875-0.95703-0.65625-1.2188-0.4375-0.25781-1.1211-0.39062-2.0469-0.39062-0.76172 0-1.4648 0.078125-2.1094 0.23438-0.64844 0.14844-1.25 0.37109-1.8125 0.67188v-2.6875c0.75-0.1875 1.5039-0.32812 2.2656-0.42188 0.75781-0.09375 1.5195-0.14062 2.2812-0.14062 1.9883 0 3.4219 0.39844 4.2969 1.1875 0.88281 0.78125 1.3281 2.0547 1.3281 3.8125z"/>
  </symbol>
  <symbol id="c" overflow="visible">
   <path d="m5.5312-14.141v3.125h3.6406v2.5156h-3.6406v4.6719c0 0.51172 0.097656 0.85938 0.29688 1.0469 0.20703 0.17969 0.61328 0.26562 1.2188 0.26562h1.8125v2.5156h-3.0156c-1.3984 0-2.3867-0.28516-2.9688-0.85938-0.57422-0.58203-0.85938-1.5703-0.85938-2.9688v-4.6719h-1.75v-2.5156h1.75v-3.125z"/>
  </symbol>
  <symbol id="k" overflow="visible">
   <path d="m9.1875-9.4062v-5.8906h3.5312v15.297h-3.5312v-1.5938c-0.49219 0.64844-1.0273 1.1211-1.6094 1.4219-0.58594 0.30078-1.2578 0.45312-2.0156 0.45312-1.3672 0-2.4844-0.53516-3.3594-1.6094-0.86719-1.082-1.2969-2.4727-1.2969-4.1719 0-1.6953 0.42969-3.082 1.2969-4.1562 0.875-1.082 1.9922-1.625 3.3594-1.625 0.75781 0 1.4297 0.15625 2.0156 0.46875 0.58203 0.30469 1.1172 0.77344 1.6094 1.4062zm-2.3281 7.1406c0.75781 0 1.3359-0.27344 1.7344-0.82812 0.39453-0.55078 0.59375-1.3516 0.59375-2.4062 0-1.0508-0.19922-1.8477-0.59375-2.3906-0.39844-0.55078-0.97656-0.82812-1.7344-0.82812-0.74219 0-1.3125 0.27734-1.7188 0.82812-0.39844 0.54297-0.59375 1.3398-0.59375 2.3906 0 1.0547 0.19531 1.8555 0.59375 2.4062 0.40625 0.55469 0.97656 0.82812 1.7188 0.82812z"/>
  </symbol>
  <symbol id="j" overflow="visible">
   <path d="m7.5469-2.2656c0.75781 0 1.3359-0.27344 1.7344-0.82812 0.39453-0.55078 0.59375-1.3516 0.59375-2.4062 0-1.0508-0.19922-1.8477-0.59375-2.3906-0.39844-0.55078-0.97656-0.82812-1.7344-0.82812-0.75 0-1.3281 0.27734-1.7344 0.82812-0.39844 0.55469-0.59375 1.3516-0.59375 2.3906 0 1.043 0.19531 1.8438 0.59375 2.4062 0.40625 0.55469 0.98438 0.82812 1.7344 0.82812zm-2.3281-7.1406c0.47656-0.63281 1.0078-1.1016 1.5938-1.4062 0.59375-0.3125 1.2734-0.46875 2.0469-0.46875 1.3516 0 2.4688 0.54297 3.3438 1.625 0.875 1.0742 1.3125 2.4609 1.3125 4.1562 0 1.6992-0.4375 3.0898-1.3125 4.1719-0.875 1.0742-1.9922 1.6094-3.3438 1.6094-0.77344 0-1.4531-0.15234-2.0469-0.45312-0.58594-0.30078-1.1172-0.77344-1.5938-1.4219v1.5938h-3.5312v-15.297h3.5312z"/>
  </symbol>
  <symbol id="i" overflow="visible">
   <path d="m0.25-11.016h3.5156l2.9688 7.4688 2.5156-7.4688h3.5156l-4.625 12.062c-0.46875 1.2188-1.0156 2.0703-1.6406 2.5625-0.61719 0.48828-1.4336 0.73438-2.4531 0.73438h-2.0312v-2.3125h1.1094c0.59375 0 1.0234-0.09375 1.2969-0.28125 0.26953-0.1875 0.48438-0.52734 0.64062-1.0156l0.09375-0.3125z"/>
  </symbol>
  <symbol id="h" overflow="visible">
   <path d="m12.062-14.219v3.1094c-0.80469-0.36328-1.5898-0.63281-2.3594-0.8125-0.76172-0.1875-1.4844-0.28125-2.1719-0.28125-0.90625 0-1.5781 0.125-2.0156 0.375-0.42969 0.25-0.64062 0.63672-0.64062 1.1562 0 0.39844 0.14453 0.70312 0.4375 0.92188 0.28906 0.21875 0.82031 0.40625 1.5938 0.5625l1.6094 0.32812c1.6328 0.32422 2.7969 0.82422 3.4844 1.5 0.6875 0.66797 1.0312 1.6172 1.0312 2.8438 0 1.625-0.48047 2.8359-1.4375 3.625-0.96094 0.78125-2.4297 1.1719-4.4062 1.1719-0.92969 0-1.8594-0.089844-2.7969-0.26562s-1.875-0.4375-2.8125-0.78125v-3.2031c0.9375 0.5 1.8438 0.88281 2.7188 1.1406 0.875 0.25 1.7188 0.375 2.5312 0.375 0.82031 0 1.4531-0.13281 1.8906-0.40625 0.4375-0.28125 0.65625-0.67578 0.65625-1.1875 0-0.45703-0.15234-0.8125-0.45312-1.0625-0.29297-0.25-0.88281-0.47266-1.7656-0.67188l-1.4688-0.32812c-1.4688-0.3125-2.543-0.8125-3.2188-1.5-0.67969-0.6875-1.0156-1.6133-1.0156-2.7812 0-1.4688 0.46875-2.5938 1.4062-3.375 0.94531-0.78906 2.3047-1.1875 4.0781-1.1875 0.80078 0 1.6289 0.0625 2.4844 0.1875 0.85156 0.125 1.7344 0.30859 2.6406 0.54688z"/>
  </symbol>
  <symbol id="g" overflow="visible">
   <path d="m1.6875-11.016h3.5312v11.016h-3.5312zm0-4.2812h3.5312v2.8594h-3.5312z"/>
  </symbol>
  <symbol id="w" overflow="visible">
   <path d="m1.6875-15.297h3.5312v15.297h-3.5312z"/>
  </symbol>
  <symbol id="v" overflow="visible">
   <path d="m0.3125-11.016h3.5156l2.7344 7.6094 2.7344-7.6094h3.5312l-4.3281 11.016h-3.875z"/>
  </symbol>
  <symbol id="f" overflow="visible">
   <path d="m1.5781-4.2812v-6.7344h3.5312v1.1094c0 0.59375-0.007813 1.3438-0.015625 2.25v1.7969c0 0.88672 0.019531 1.5273 0.0625 1.9219 0.050781 0.38672 0.13281 0.66797 0.25 0.84375 0.13281 0.23047 0.31641 0.40625 0.54688 0.53125 0.23828 0.125 0.50781 0.1875 0.8125 0.1875 0.73828 0 1.3164-0.28125 1.7344-0.84375 0.41406-0.57031 0.625-1.3594 0.625-2.3594v-5.4375h3.5156v11.016h-3.5156v-1.5938c-0.53125 0.64844-1.0938 1.1211-1.6875 1.4219s-1.2461 0.45312-1.9531 0.45312c-1.2812 0-2.2578-0.39062-2.9219-1.1719-0.65625-0.78125-0.98438-1.9102-0.98438-3.3906z"/>
  </symbol>
  <symbol id="u" overflow="visible">
   <path d="m8.5625-12.203c-1.1562 0-2.0547 0.42969-2.6875 1.2812-0.63672 0.85547-0.95312 2.0547-0.95312 3.5938 0 1.543 0.31641 2.7422 0.95312 3.5938 0.63281 0.85547 1.5312 1.2812 2.6875 1.2812s2.0508-0.42578 2.6875-1.2812c0.63281-0.85156 0.95312-2.0508 0.95312-3.5938 0-1.5391-0.32031-2.7383-0.95312-3.5938-0.63672-0.85156-1.5312-1.2812-2.6875-1.2812zm0-2.75c2.3516 0 4.1953 0.67969 5.5312 2.0312 1.3438 1.3555 2.0156 3.2188 2.0156 5.5938s-0.67188 4.2422-2.0156 5.5938c-1.3359 1.3438-3.1797 2.0156-5.5312 2.0156-2.3555 0-4.2031-0.67188-5.5469-2.0156-1.3438-1.3516-2.0156-3.2188-2.0156-5.5938s0.67188-4.2383 2.0156-5.5938c1.3438-1.3516 3.1914-2.0312 5.5469-2.0312z"/>
  </symbol>
  <symbol id="e" overflow="visible">
   <path d="m1.6875-11.016h3.5312v10.812c0 1.4766-0.35547 2.6016-1.0625 3.375-0.71094 0.78125-1.7344 1.1719-3.0781 1.1719h-1.75v-2.3125h0.60938c0.66406 0 1.125-0.15234 1.375-0.45312 0.25-0.30469 0.375-0.89844 0.375-1.7812zm0-4.2812h3.5312v2.8594h-3.5312z"/>
  </symbol>
  <symbol id="b" overflow="visible">
   <path d="m6.9375-8.7656c-0.78125 0-1.3828 0.28125-1.7969 0.84375-0.40625 0.5625-0.60938 1.3711-0.60938 2.4219 0 1.0625 0.20312 1.875 0.60938 2.4375 0.41406 0.55469 1.0156 0.82812 1.7969 0.82812 0.75781 0 1.3438-0.27344 1.75-0.82812 0.40625-0.5625 0.60938-1.375 0.60938-2.4375 0-1.0508-0.20312-1.8594-0.60938-2.4219s-0.99219-0.84375-1.75-0.84375zm0-2.5156c1.8945 0 3.375 0.51172 4.4375 1.5312 1.0625 1.0234 1.5938 2.4375 1.5938 4.25s-0.53125 3.2305-1.5938 4.25c-1.0625 1.0234-2.543 1.5312-4.4375 1.5312-1.9062 0-3.3984-0.50781-4.4688-1.5312-1.0742-1.0195-1.6094-2.4375-1.6094-4.25s0.53516-3.2266 1.6094-4.25c1.0703-1.0195 2.5625-1.5312 4.4688-1.5312z"/>
  </symbol>
  <symbol id="t" overflow="visible">
   <path d="m9.1875-1.875c-0.49219 0.64844-1.0273 1.1211-1.6094 1.4219-0.58594 0.30469-1.2578 0.45312-2.0156 0.45312-1.3438 0-2.4609-0.52344-3.3438-1.5781-0.875-1.0625-1.3125-2.4141-1.3125-4.0625 0-1.6445 0.4375-2.9922 1.3125-4.0469 0.88281-1.0508 2-1.5781 3.3438-1.5781 0.75781 0 1.4297 0.15234 2.0156 0.45312 0.58203 0.30469 1.1172 0.78125 1.6094 1.4375v-1.6406h3.5312v9.9062c0 1.7695-0.55859 3.1172-1.6719 4.0469-1.1172 0.9375-2.7344 1.4062-4.8594 1.4062-0.6875 0-1.3555-0.054688-2-0.15625-0.64844-0.10547-1.293-0.26562-1.9375-0.48438v-2.7344c0.61328 0.35156 1.2188 0.61328 1.8125 0.78125 0.59375 0.17578 1.1875 0.26562 1.7812 0.26562 1.1562 0 2-0.25781 2.5312-0.76562 0.53906-0.5 0.8125-1.2852 0.8125-2.3594zm-2.3281-6.8438c-0.73047 0-1.2969 0.27344-1.7031 0.8125-0.40625 0.53125-0.60938 1.2891-0.60938 2.2656 0 1.0117 0.19531 1.7773 0.59375 2.2969 0.39453 0.52344 0.96875 0.78125 1.7188 0.78125 0.73828 0 1.3125-0.26562 1.7188-0.79688 0.40625-0.53906 0.60938-1.3008 0.60938-2.2812 0-0.97656-0.20312-1.7344-0.60938-2.2656-0.40625-0.53906-0.98047-0.8125-1.7188-0.8125z"/>
  </symbol>
  <symbol id="s" overflow="visible">
   <path d="m8.9375-15.297v2.3125h-1.9531c-0.49219 0-0.83594 0.089844-1.0312 0.26562-0.19922 0.17969-0.29688 0.49219-0.29688 0.9375v0.76562h3v2.5156h-3v8.5h-3.5156v-8.5h-1.75v-2.5156h1.75v-0.76562c0-1.1953 0.33203-2.082 1-2.6562 0.66406-0.57031 1.7031-0.85938 3.1094-0.85938z"/>
  </symbol>
  <symbol id="r" overflow="visible">
   <path d="m11.906-9.1875c0.4375-0.67578 0.96094-1.1914 1.5781-1.5469 0.61328-0.36328 1.2891-0.54688 2.0312-0.54688 1.2578 0 2.2188 0.39062 2.875 1.1719 0.66406 0.78125 1 1.918 1 3.4062v6.7031h-3.5312v-5.75-0.25c0.007813-0.09375 0.015625-0.22656 0.015625-0.40625 0-0.78125-0.11719-1.3438-0.34375-1.6875-0.23047-0.35156-0.60156-0.53125-1.1094-0.53125-0.67969 0-1.1992 0.27734-1.5625 0.82812-0.35547 0.55469-0.54297 1.3516-0.5625 2.3906v5.4062h-3.5312v-5.75c0-1.2188-0.10547-2-0.3125-2.3438-0.21094-0.35156-0.58594-0.53125-1.125-0.53125-0.67969 0-1.1992 0.27734-1.5625 0.82812-0.36719 0.55469-0.54688 1.3438-0.54688 2.375v5.4219h-3.5469v-11.016h3.5469v1.6094c0.42578-0.61328 0.92188-1.0781 1.4844-1.3906 0.5625-0.32031 1.1797-0.48438 1.8594-0.48438 0.75781 0 1.4297 0.1875 2.0156 0.5625 0.58203 0.36719 1.0234 0.875 1.3281 1.5312z"/>
  </symbol>
  <symbol id="q" overflow="visible">
   <path d="m12.766-6.7031v6.7031h-3.5469v-5.1094c0-0.96875-0.023438-1.6289-0.0625-1.9844-0.042969-0.36328-0.11719-0.62891-0.21875-0.79688-0.13672-0.22656-0.32422-0.40625-0.5625-0.53125-0.23047-0.13281-0.49609-0.20312-0.79688-0.20312-0.74219 0-1.3203 0.28906-1.7344 0.85938-0.41797 0.5625-0.625 1.3438-0.625 2.3438v5.4219h-3.5312v-15.297h3.5312v5.8906c0.53125-0.63281 1.0938-1.1016 1.6875-1.4062 0.59375-0.3125 1.25-0.46875 1.9688-0.46875 1.2695 0 2.2344 0.39062 2.8906 1.1719 0.66406 0.78125 1 1.918 1 3.4062z"/>
  </symbol>
  <symbol id="p" overflow="visible">
   <path d="m1.8438-14.688h4.2344l5.3438 10.078v-10.078h3.5781v14.688h-4.2188l-5.3438-10.078v10.078h-3.5938z"/>
  </symbol>
  <symbol id="o" overflow="visible">
   <path d="m12.766-6.7031v6.7031h-3.5469v-5.1406c0-0.94531-0.023438-1.5977-0.0625-1.9531-0.042969-0.36328-0.11719-0.62891-0.21875-0.79688-0.13672-0.22656-0.32422-0.40625-0.5625-0.53125-0.23047-0.13281-0.49609-0.20312-0.79688-0.20312-0.74219 0-1.3203 0.28906-1.7344 0.85938-0.41797 0.5625-0.625 1.3438-0.625 2.3438v5.4219h-3.5312v-11.016h3.5312v1.6094c0.53125-0.63281 1.0938-1.1016 1.6875-1.4062 0.59375-0.3125 1.25-0.46875 1.9688-0.46875 1.2695 0 2.2344 0.39062 2.8906 1.1719 0.66406 0.78125 1 1.918 1 3.4062z"/>
  </symbol>
  <symbol id="n" overflow="visible">
   <path d="m1.8438-14.688h6.2969c1.8633 0 3.2969 0.41797 4.2969 1.25 1 0.83594 1.5 2.0156 1.5 3.5469 0 1.543-0.5 2.7305-1.5 3.5625-1 0.82422-2.4336 1.2344-4.2969 1.2344h-2.5v5.0938h-3.7969zm3.7969 2.75v4.0938h2.0938c0.72656 0 1.2891-0.17578 1.6875-0.53125 0.40625-0.35156 0.60938-0.85938 0.60938-1.5156s-0.20312-1.1602-0.60938-1.5156c-0.39844-0.35156-0.96094-0.53125-1.6875-0.53125z"/>
  </symbol>
  <symbol id="m" overflow="visible">
   <path d="m10.594-10.672v2.875c-0.48047-0.33203-0.96484-0.57812-1.4531-0.73438-0.48047-0.15625-0.97656-0.23438-1.4844-0.23438-0.99219 0-1.7617 0.28906-2.3125 0.85938-0.54297 0.57422-0.8125 1.375-0.8125 2.4062s0.26953 1.8359 0.8125 2.4062c0.55078 0.57422 1.3203 0.85938 2.3125 0.85938 0.55078 0 1.0703-0.078125 1.5625-0.23438 0.5-0.16406 0.95703-0.41016 1.375-0.73438v2.875c-0.55469 0.21094-1.1172 0.35938-1.6875 0.45312-0.5625 0.10156-1.1328 0.15625-1.7031 0.15625-1.9805 0-3.5312-0.50391-4.6562-1.5156-1.125-1.0195-1.6875-2.4414-1.6875-4.2656 0-1.8125 0.5625-3.2266 1.6875-4.25 1.125-1.0195 2.6758-1.5312 4.6562-1.5312 0.58203 0 1.1484 0.054688 1.7031 0.15625 0.5625 0.10547 1.125 0.25781 1.6875 0.45312z"/>
  </symbol>
 </defs>
 <g>
  <path d="m400.9 531.65v24.352h-108.79v-117.48h-40.145v-49.195c0-26.227-15.355-46.582-46.066-61.062-59.457-28.027-63.379-87.766-63.379-153.39v-12.027c0-19.672 15.98-35.625 35.695-35.625h49.297v-107.72c0-10.773 8.7539-19.508 19.551-19.508s19.547 8.7344 19.547 19.508v107.72h154.69v-106.02c0-10.777 8.7539-19.512 19.551-19.512 10.797 0 19.551 8.7344 19.551 19.512v106.02h49.297c19.715 0 35.695 15.953 35.695 35.625v12.027c0 50.434-2.3164 97.387-30.375 129.14 25.629 24.238 41.621 58.559 41.621 96.621 0 73.426-59.523 132.95-132.95 132.95-7.7695 0-15.383-0.66797-22.789-1.9453zm22.789-10.141c66.75 0 120.86-54.113 120.86-120.86 0-66.754-54.113-120.86-120.86-120.86s-120.86 54.109-120.86 120.86c0 66.75 54.113 120.86 120.86 120.86zm49.984-98.684c0 8.8906-3.1875 16.578-9.5625 23.062-6.375 6.4805-15.617 10.633-27.727 12.457v8.1953c0 5.3242-4.3164 9.6445-9.6406 9.6445-5.3281 0-9.6445-4.3203-9.6445-9.6445v-7.5547c-8.0352-0.53516-15.645-1.9023-22.82-4.0977-4.4688-1.3672-8.457-2.9297-11.973-4.6914-3.3828-1.6953-4.832-5.7539-3.293-9.2109 0.050781-0.11328 0.097656-0.22656 0.14453-0.32812l5.2266-11.742c1.2344-2.7695 4.4844-4.0156 7.2539-2.7812 0.125 0.054687 0.24609 0.11328 0.36719 0.17578 0.27734 0.15234 0.53906 0.28906 0.78125 0.41016 3.5508 1.7969 7.4258 3.3359 11.617 4.6211 6.6406 2.0352 13.18 3.0547 19.605 3.0547 12.215 0 18.324-3.0547 18.324-9.1602 0-3.2148-1.7422-5.6016-5.2227-7.1523-3.4844-1.5547-9.082-3.1875-16.797-4.9023-8.4648-1.8203-15.535-3.7773-21.215-5.8672-5.6797-2.0898-10.555-5.4375-14.625-10.047-4.0742-4.6055-6.1094-10.82-6.1094-18.641 0-9.2148 3.3203-17.117 9.9648-23.707s16.234-10.637 28.77-12.137v-8.0352c0-5.3242 4.3164-9.6445 9.6445-9.6445 5.3242 0 9.6406 4.3203 9.6406 9.6445v7.7148c6.1094 0.53516 11.977 1.6094 17.602 3.2148 3.9648 1.1328 7.6211 2.5039 10.977 4.1172 0.27734 0.13281 0.59375 0.29297 0.94922 0.47656 1.7695 0.91016 2.543 3.0234 1.7812 4.8594l-7.2969 17.578c-0.60547 1.457-2.2734 2.1484-3.7266 1.543-0.066406-0.027344-0.12891-0.054687-0.19141-0.085937-0.53516-0.26953-0.98828-0.49219-1.3672-0.67188-9.2695-4.4023-18.297-6.6016-27.082-6.6016-6.3203 0-10.93 0.9375-13.824 2.8125-2.8906 1.875-4.3359 4.3125-4.3359 7.3125s1.7109 5.25 5.1406 6.75c3.4297 1.5 8.9492 3.0547 16.555 4.6641 8.5742 1.8203 15.672 3.7734 21.297 5.8633s10.5 5.4141 14.625 9.9648c4.125 4.5547 6.1875 10.742 6.1875 18.566z"/>
  <use x="142.519531" y="620.433594" xlink:href="#x"/>
  <use x="157.300781" y="620.433594" xlink:href="#d"/>
  <use x="167.234375" y="620.433594" xlink:href="#a"/>
  <use x="180.898438" y="620.433594" xlink:href="#l"/>
  <use x="194.492188" y="620.433594" xlink:href="#c"/>
  <use x="204.121094" y="620.433594" xlink:href="#a"/>
  <use x="217.78125" y="620.433594" xlink:href="#k"/>
  <use x="239.214844" y="620.433594" xlink:href="#j"/>
  <use x="253.632812" y="620.433594" xlink:href="#i"/>
  <use x="273.777344" y="620.433594" xlink:href="#h"/>
  <use x="288.285156" y="620.433594" xlink:href="#g"/>
  <use x="295.191406" y="620.433594" xlink:href="#w"/>
  <use x="302.09375" y="620.433594" xlink:href="#v"/>
  <use x="315.226562" y="620.433594" xlink:href="#g"/>
  <use x="322.132812" y="620.433594" xlink:href="#f"/>
  <use x="343.484375" y="620.433594" xlink:href="#u"/>
  <use x="360.609375" y="620.433594" xlink:href="#e"/>
  <use x="367.515625" y="620.433594" xlink:href="#b"/>
  <use x="381.351562" y="620.433594" xlink:href="#t"/>
  <use x="142.519531" y="640.574219" xlink:href="#s"/>
  <use x="151.28125" y="640.574219" xlink:href="#d"/>
  <use x="161.214844" y="640.574219" xlink:href="#b"/>
  <use x="175.054688" y="640.574219" xlink:href="#r"/>
  <use x="203.058594" y="640.574219" xlink:href="#c"/>
  <use x="212.6875" y="640.574219" xlink:href="#q"/>
  <use x="227.027344" y="640.574219" xlink:href="#a"/>
  <use x="247.703125" y="640.574219" xlink:href="#p"/>
  <use x="264.5625" y="640.574219" xlink:href="#b"/>
  <use x="278.402344" y="640.574219" xlink:href="#f"/>
  <use x="292.742188" y="640.574219" xlink:href="#o"/>
  <use x="314.09375" y="640.574219" xlink:href="#n"/>
  <use x="328.859375" y="640.574219" xlink:href="#d"/>
  <use x="338.792969" y="640.574219" xlink:href="#b"/>
  <use x="352.632812" y="640.574219" xlink:href="#e"/>
  <use x="359.535156" y="640.574219" xlink:href="#a"/>
  <use x="373.199219" y="640.574219" xlink:href="#m"/>
  <use x="385.140625" y="640.574219" xlink:href="#c"/>
 </g>
</svg>
